<?xml version="1.0" encoding="UTF-8" standalone="no"?>
<!-- Generator: Adobe Illustrator 16.0.4, SVG Export Plug-In . SVG Version: 6.00 Build 0)  -->

<svg
   xmlns:dc="http://purl.org/dc/elements/1.1/"
   xmlns:cc="http://creativecommons.org/ns#"
   xmlns:rdf="http://www.w3.org/1999/02/22-rdf-syntax-ns#"
   xmlns:svg="http://www.w3.org/2000/svg"
   xmlns="http://www.w3.org/2000/svg"
   xmlns:sodipodi="http://sodipodi.sourceforge.net/DTD/sodipodi-0.dtd"
   xmlns:inkscape="http://www.inkscape.org/namespaces/inkscape"
   version="1.1"
   id="Layer_1"
   x="0px"
   y="0px"
   width="197.7243"
   height="230.91785"
   viewBox="0 0 197.7243 230.91785"
   enable-background="new 0 0 126 126"
   xml:space="preserve"
   inkscape:version="0.48.4 r9939"
   sodipodi:docname="hangman.svg"><metadata
     id="metadata9"><rdf:RDF><cc:Work
         rdf:about=""><dc:format>image/svg+xml</dc:format><dc:type
           rdf:resource="http://purl.org/dc/dcmitype/StillImage" /></cc:Work></rdf:RDF></metadata><defs
     id="defs7" /><sodipodi:namedview
     pagecolor="#ffffff"
     bordercolor="#666666"
     borderopacity="1"
     objecttolerance="10"
     gridtolerance="10"
     guidetolerance="10"
     inkscape:pageopacity="0"
     inkscape:pageshadow="2"
     inkscape:window-width="1680"
     inkscape:window-height="995"
     id="namedview5"
     showgrid="false"
     inkscape:zoom="2.2731384"
     inkscape:cx="143.9438"
     inkscape:cy="104.55763"
     inkscape:window-x="1366"
     inkscape:window-y="0"
     inkscape:window-maximized="1"
     inkscape:current-layer="Layer_1"
     fit-margin-top="0"
     fit-margin-left="0"
     fit-margin-right="0"
     fit-margin-bottom="0" /><path
     d="m 37.623475,80.676299 0,-65.3677 -7.656875,0 0,54.485837 z"
     id="rope"
     inkscape:connector-curvature="0"
     sodipodi:nodetypes="ccccc"
     inkscape:label="#path3810"><title
       id="title3816-7">seil</title></path><g
     transform="matrix(1.25,0,0,-1.25,-1551.2726,644.3241)"
     id="torso"><g
       id="torso_no_neck"><g
         id="g744"
         transform="matrix(0.38720507,0,0,0.38720507,1261.2754,413.38731)"><path
           d="m 0,0 c 3.62,3.749 3.532,9.732 -0.207,13.411 -3.74,3.68 -9.783,3.59 -13.454,-0.206 l -2.782,-2.885 c -4.449,-4.634 -8.874,-9.286 -13.269,-14.005 -4.396,-4.728 -8.757,-9.474 -13.077,-14.498 -1.082,-1.255 -2.162,-2.544 -3.249,-3.877 l -0.818,-1.026 -0.575,-0.729 c -0.234,-0.301 -0.465,-0.616 -0.698,-0.942 l -1.389,-1.934 c -0.443,-0.652 -0.792,-1.338 -1.193,-2.005 -0.742,-1.352 -1.094,-2.775 -1.406,-4.194 -0.059,-0.366 -0.218,-0.721 -0.198,-1.096 l 0.083,-1.112 c 0.037,-0.729 0.149,-1.455 0.283,-2.178 0.034,-0.366 0.176,-0.726 0.303,-1.086 l 0.379,-1.077 c 0.288,-0.716 0.657,-1.42 0.981,-2.13 0.345,-0.702 0.772,-1.383 1.158,-2.076 l 0.591,-1.018 0.474,-0.764 c 1.901,-3.031 3.801,-5.716 5.728,-8.416 1.925,-2.677 3.871,-5.289 5.833,-7.88 l 4.164,-5.437 15.016,11.637 -4.033,5.267 c -1.891,2.497 -3.757,5.003 -5.555,7.503 -1.783,2.492 -3.562,5.025 -5.046,7.401 l -0.169,0.266 0.853,1.071 c 0.928,1.142 1.897,2.296 2.897,3.459 4.003,4.652 8.273,9.309 12.567,13.922 4.301,4.62 8.668,9.215 13.058,13.784 L 0,0 z"
           style="fill:#b4d898;fill-opacity:1;fill-rule:nonzero;stroke:none"
           id="path746"
           inkscape:connector-curvature="0" /></g><g
         id="g748"
         transform="matrix(0.38720507,0,0,0.38720507,1255.7702,390.35055)"><path
           d="m 0,0 -3.104,3.972 -15.016,-11.637 3.184,-4.075 c 3.282,-4.182 9.313,-4.873 13.384,-1.561 C 2.518,-9.992 3.194,-4.069 0,0"
           style="fill:#b07d3f;fill-opacity:1;fill-rule:nonzero;stroke:none"
           id="path750"
           inkscape:connector-curvature="0" /></g><g
         id="g752"
         transform="matrix(0.38720507,0,0,0.38720507,1281.5893,417.86178)"><path
           d="m 0,0 c -1.302,1.51 -2.961,2.772 -4.893,3.526 -1.919,0.749 -3.947,0.979 -5.657,0.595 -0.847,-0.16 -1.583,-0.482 -2.201,-0.891 -0.615,-0.385 -1.116,-0.865 -1.507,-1.418 -0.776,-1.087 -1.077,-2.326 -1.097,-3.634 0.003,-2.619 0.816,-5.038 0.667,-6.838 -0.144,-1.792 -0.691,-2.656 0.201,-3.627 0.424,-0.483 0.893,-1.203 1.363,-1.954 0.999,-1.726 1.961,-3.847 2.776,-6.167 0.824,-2.314 1.547,-4.786 2.187,-7.329 1.272,-5.093 2.227,-10.458 3.002,-15.888 1.531,-10.883 2.369,-22.062 2.841,-33.261 l 0.227,-6.603 18.991,0.517 -0.234,6.872 c -0.499,11.671 -1.358,23.355 -3.017,35.148 -0.842,5.899 -1.883,11.824 -3.383,17.839 -0.757,3.006 -1.631,6.037 -2.731,9.116 -1.094,3.075 -2.44,6.218 -4.316,9.443 C 2.293,-3.046 1.312,-1.534 0,0"
           style="fill:#b4d898;fill-opacity:1;fill-rule:nonzero;stroke:none"
           id="path754"
           inkscape:connector-curvature="0" /></g><g
         id="g756"
         transform="matrix(0.38720507,0,0,0.38720507,1288.1775,383.71854)"><path
           d="m 0,0 -0.114,5.207 -18.991,-0.518 0.109,-5.004 c 0.091,-5.125 4.304,-9.255 9.546,-9.34 C -4.201,-9.739 0.093,-5.363 0,0"
           style="fill:#b07d3f;fill-opacity:1;fill-rule:nonzero;stroke:none"
           id="path758"
           inkscape:connector-curvature="0" /></g><g
         id="g760"
         transform="matrix(0.38720507,0,0,0.38720507,1278.2743,419.64989)"><path
           d="m 0,0 c -6.261,1.395 -15.921,3.085 -25.975,3.087 -10.066,0 -19.758,-1.695 -26.038,-3.092 -3.962,-0.881 -7.128,-5.105 -7.128,-9.165 l 0,-66.218 66.266,0 0,66.218 C 7.125,-5.11 3.964,-0.883 0,0"
           style="fill:#b4d898;fill-opacity:1;fill-rule:nonzero;stroke:none"
           id="path762"
           inkscape:connector-curvature="0" /></g><g
         id="g768"
         transform="matrix(0.38720507,0,0,0.38720507,1270.5151,411.42902)"><path
           d="m 0,0 c 0,-0.902 -0.731,-1.632 -1.632,-1.632 -0.904,0 -1.634,0.73 -1.634,1.632 0,0.9 0.73,1.633 1.634,1.633 C -0.731,1.633 0,0.9 0,0"
           style="fill:#8aaf69;fill-opacity:1;fill-rule:nonzero;stroke:none"
           id="path770"
           inkscape:connector-curvature="0" /></g><g
         id="g772"
         transform="matrix(0.38720507,0,0,0.38720507,1249.3859,389.7194)"><path
           d="m 0,0 c 0,-0.902 -0.73,-1.632 -1.632,-1.632 -0.903,0 -1.634,0.73 -1.634,1.632 0,0.9 0.731,1.633 1.634,1.633 C -0.73,1.633 0,0.9 0,0"
           style="fill:#8aaf69;fill-opacity:1;fill-rule:nonzero;stroke:none"
           id="path774"
           inkscape:connector-curvature="0" /></g><g
         id="g776"
         transform="matrix(0.38720507,0,0,0.38720507,1287.1788,387.38258)"><path
           d="m 0,0 c 0,-0.902 -0.73,-1.631 -1.634,-1.631 -0.901,0 -1.632,0.729 -1.632,1.631 0,0.9 0.731,1.634 1.632,1.634 C -0.73,1.634 0,0.9 0,0"
           style="fill:#8aaf69;fill-opacity:1;fill-rule:nonzero;stroke:none"
           id="path778"
           inkscape:connector-curvature="0" /></g><g
         id="g780"
         transform="matrix(0.38720507,0,0,0.38720507,1268.2043,390.35167)"><path
           d="m 0,0 c -0.315,0 -0.566,0.252 -0.566,0.566 l 0,56.792 c 0,0.313 0.251,0.567 0.566,0.567 0.315,0 0.567,-0.254 0.567,-0.567 l 0,-56.792 C 0.567,0.252 0.315,0 0,0"
           style="fill:#8aaf69;fill-opacity:1;fill-rule:nonzero;stroke:none"
           id="path782"
           inkscape:connector-curvature="0" /></g><g
         id="g792"
         transform="matrix(0.38720507,0,0,0.38720507,1273.5631,421.86765)"><path
           d="m 0,0 c 0,0 -4.377,-2.13 -13.793,-2.13 -9.416,0 -13.896,2.146 -13.896,2.146 0,0 7.448,1.566 13.896,1.566 C -7.347,1.582 0,0 0,0"
           style="fill:#a37136;fill-opacity:1;fill-rule:nonzero;stroke:none"
           id="path794"
           inkscape:connector-curvature="0" /></g><g
         id="g820"
         transform="matrix(0.38720507,0,0,0.38720507,1262.4919,420.43057)"><path
           d="M 0,0 14.753,-20.386 5.166,-16.594 -1.861,-19.282 0,0 z"
           style="fill:#8aaf69;fill-opacity:1;fill-rule:nonzero;stroke:none"
           id="path822"
           inkscape:connector-curvature="0" /></g><g
         id="g824"
         transform="matrix(0.38720507,0,0,0.38720507,1273.9171,420.43057)"><path
           d="m 0,0 -14.754,-20.386 9.588,3.792 7.024,-2.688 L 0,0 z"
           style="fill:#8aaf69;fill-opacity:1;fill-rule:nonzero;stroke:none"
           id="path826"
           inkscape:connector-curvature="0" /></g></g><g
       transform="matrix(0.38720507,0,0,0.38720507,1273.5196,422.15508)"
       id="neck"><path
         inkscape:connector-curvature="0"
         id="path766"
         style="fill:#b07d3f;fill-opacity:1;fill-rule:nonzero;stroke:none"
         d="M 0,0 1.026,-8.581 -13.728,-28.972 -28.481,-8.586 -27.455,0 0,0 z" /></g></g><path
     sodipodi:type="arc"
     style="opacity:0.75536481;fill:#ffffff;fill-opacity:0;stroke:#000000;stroke-width:7.19999981;stroke-miterlimit:4;stroke-opacity:1;stroke-dasharray:none"
     id="strick"
     sodipodi:cx="1586.7106"
     sodipodi:cy="456.77026"
     sodipodi:rx="10.083654"
     sodipodi:ry="10.673766"
     d="m 1596.7942,456.77026 a 10.083654,10.673766 0 1 1 -20.1673,0 10.083654,10.673766 0 1 1 20.1673,0 z"
     transform="matrix(1.0116894,0,0,0.85177119,-1571.2926,-275.11546)" /><g
     transform="matrix(1.25,0,0,-1.25,-1551.2726,644.3241)"
     id="head"><g
       transform="matrix(0.38720507,0,0,0.38720507,1253.8966,438.471)"
       id="g796"><path
         inkscape:connector-curvature="0"
         id="path798"
         style="fill:#b07d3f;fill-opacity:1;fill-rule:nonzero;stroke:none"
         d="m 0,0 c 0,-4.803 -3.893,-8.694 -8.693,-8.694 -4.803,0 -8.697,3.891 -8.697,8.694 0,4.804 3.894,8.696 8.697,8.696 C -3.893,8.696 0,4.804 0,0" /></g><g
       transform="matrix(0.38720507,0,0,0.38720507,1289.2813,438.471)"
       id="g800"><path
         inkscape:connector-curvature="0"
         id="path802"
         style="fill:#b07d3f;fill-opacity:1;fill-rule:nonzero;stroke:none"
         d="m 0,0 c 0,-4.803 -3.894,-8.694 -8.695,-8.694 -4.8,0 -8.694,3.891 -8.694,8.694 0,4.804 3.894,8.696 8.694,8.696 C -3.894,8.696 0,4.804 0,0" /></g><g
       transform="matrix(0.38720507,0,0,0.38720507,1274.2756,466.64183)"
       id="g804"><path
         inkscape:connector-curvature="0"
         id="path806"
         style="fill:#b07d3f;fill-opacity:1;fill-rule:nonzero;stroke:none"
         d="m 0,0 -30.641,-0.628 c -33.072,0 -30.683,-60.914 -30.683,-60.914 l 0,-16.584 c 0,-20.984 17.009,-37.996 37.994,-37.996 l 15.393,0 c 20.983,0 37.996,17.012 37.996,37.996 l -0.003,16.519 C 30.056,-61.607 33.072,0 0,0" /></g><g
       transform="matrix(0.38720507,0,0,0.38720507,1261.0837,440.68287)"
       id="g808"><path
         inkscape:connector-curvature="0"
         id="path810"
         style="fill:#443425;fill-opacity:1;fill-rule:nonzero;stroke:none"
         d="m 0,0 c 0,-2.616 -2.121,-4.733 -4.736,-4.733 -2.615,0 -4.732,2.117 -4.732,4.733 l 0,2.053 c 0,2.618 2.117,4.739 4.732,4.739 C -2.121,6.792 0,4.671 0,2.053 L 0,0 z" /></g><g
       transform="matrix(0.38720507,0,0,0.38720507,1279.0895,440.68287)"
       id="g812"><path
         inkscape:connector-curvature="0"
         id="path814"
         style="fill:#443425;fill-opacity:1;fill-rule:nonzero;stroke:none"
         d="M 0,0 C 0,-2.616 -2.118,-4.733 -4.736,-4.733 -7.35,-4.733 -9.47,-2.616 -9.47,0 l 0,2.053 c 0,2.618 2.12,4.739 4.734,4.739 C -2.118,6.792 0,4.671 0,2.053 L 0,0 z" /></g><g
       transform="matrix(0.38720507,0,0,0.38720507,1268.2527,429.40413)"
       id="g816"><path
         inkscape:connector-curvature="0"
         id="path818"
         style="fill:#6f4221;fill-opacity:1;fill-rule:nonzero;stroke:none"
         d="m 0,0 c -10.911,0 -15.19,1.251 -15.366,1.306 -0.973,0.291 -1.525,1.318 -1.234,2.29 0.293,0.97 1.312,1.524 2.284,1.232 0.078,-0.022 4.123,-1.15 14.316,-1.15 10.239,0 14.279,1.14 14.318,1.153 0.97,0.283 1.994,-0.274 2.28,-1.246 C 16.886,2.615 16.339,1.597 15.369,1.306 15.19,1.251 10.906,0 0,0" /></g><g
       transform="matrix(0.38720507,0,0,0.38720507,1290.6546,459.12765)"
       id="g828"><path
         inkscape:connector-curvature="0"
         id="path830"
         style="fill:#666666;fill-opacity:1;fill-rule:nonzero;stroke:none"
         d="m 0,0 c -6.113,3.378 -12.883,6.268 -12.883,6.268 0,0 -1.528,10.116 -3.929,16.385 -2.402,6.259 -6.333,16.399 -12.231,19.031 -9.173,4.093 -28.822,4.093 -28.822,4.093 0,0 -18.127,0 -28.828,-4.093 -6.009,-2.302 -9.825,-12.772 -12.225,-19.031 -2.401,-6.269 -3.931,-16.385 -3.931,-16.385 0,0 -6.77,-2.89 -12.881,-6.268 -6.116,-3.372 -10.488,-9.151 -11.793,-15.418 1.966,-19.273 24.455,-27.466 24.455,-27.466 0,0 0,15.903 1.09,21.443 1.093,5.541 3.492,7.954 12.886,12.046 9.386,4.094 31.227,5.545 31.227,5.545 0,0 21.837,-1.451 31.226,-5.545 9.389,-4.092 11.793,-6.505 12.886,-12.046 1.088,-5.54 1.088,-21.443 1.088,-21.443 0,0 22.491,8.193 24.458,27.466 C 10.482,-9.151 6.115,-3.372 0,0" /></g><g
       transform="matrix(0.38720507,0,0,0.38720507,1285.6663,461.55446)"
       id="g832"><path
         inkscape:connector-curvature="0"
         id="path834"
         style="fill:#999999;fill-opacity:1;fill-rule:nonzero;stroke:none"
         d="m 0,0 c 0,0 -1.528,10.116 -3.93,16.385 -2.401,6.259 -6.332,16.4 -12.23,19.032 -9.173,4.092 -28.822,4.092 -28.822,4.092 0,0 -18.127,0 -28.829,-4.092 C -79.819,33.115 -83.635,22.644 -86.035,16.385 -88.437,10.116 -89.966,0 -89.966,0 c 0,0 47.475,15.002 89.966,0" /></g><g
       transform="matrix(0.38720507,0,0,0.38720507,1287.3694,443.27246)"
       id="g836"><path
         inkscape:connector-curvature="0"
         id="path838"
         style="fill:#42210b;fill-opacity:1;fill-rule:nonzero;stroke:none"
         d="m 0,0 c 0,0 -3.202,-1.108 -3.437,-1.108 -0.236,0 -1.083,0.778 -0.965,1.295 0.117,0.517 1.059,1.084 1.318,1.084 C -2.825,1.271 0,0.305 0,0.305 L 0,0 z m -8.428,-10.549 c -0.66,-3.295 -3.06,-6.686 -4.38,-8.146 -3.673,-3.39 -8.664,-3.438 -12.43,-3.438 -9.513,0.424 -11.444,3.673 -13.751,7.063 -2.779,4.381 -2.637,9.89 -2.214,13.561 0.425,3.674 3.344,5.981 5.227,6.876 1.883,0.896 6.577,1.398 6.577,1.398 5.179,0.438 11.584,-0.159 14.535,-0.848 2.95,-0.692 4.113,-1.603 5.304,-2.858 1.194,-1.255 1.697,-4.167 1.697,-4.167 0.367,-1.505 0.094,-6.145 -0.565,-9.441 m -52.089,-4.521 c -2.308,-3.39 -4.239,-6.639 -13.75,-7.063 -3.768,0 -8.758,0.048 -12.432,3.438 -1.32,1.46 -3.719,4.851 -4.378,8.146 -0.659,3.296 -0.933,7.936 -0.566,9.441 0,0 0.502,2.912 1.695,4.167 1.193,1.255 2.355,2.166 5.305,2.858 2.952,0.689 9.356,1.286 14.536,0.848 0,0 4.694,-0.502 6.576,-1.398 1.884,-0.895 4.804,-3.202 5.227,-6.876 0.425,-3.671 0.565,-9.18 -2.213,-13.561 m -35.552,13.962 c -0.235,0 -3.437,1.108 -3.437,1.108 l 0,0.305 c 0,0 2.824,0.966 3.084,0.966 0.258,0 1.2,-0.567 1.318,-1.084 0.117,-0.517 -0.731,-1.295 -0.965,-1.295 M 3.123,2.871 c -0.061,0.628 -2.32,1.258 -2.32,1.258 0,0 -2.829,0.689 -5.78,1.851 -2.949,1.161 -8.976,3.359 -11.739,3.735 -2.762,0.376 -9.419,0.753 -13.185,0.252 -3.769,-0.503 -7.536,-1.319 -8.791,-2.01 -1.254,-0.69 -2.511,-1.506 -3.076,-1.947 -0.564,-0.44 -1.13,-0.88 -1.631,-0.815 -0.504,0.062 -1.634,0.815 -1.634,0.815 0,0 -2.985,0 -4.721,-0.017 -1.735,0.017 -4.72,0.017 -4.72,0.017 0,0 -1.13,-0.753 -1.633,-0.815 -0.504,-0.065 -1.066,0.375 -1.632,0.815 -0.565,0.441 -1.821,1.257 -3.076,1.947 -1.255,0.691 -5.022,1.507 -8.79,2.01 -3.767,0.501 -10.423,0.124 -13.186,-0.252 -2.76,-0.376 -8.79,-2.574 -11.74,-3.735 -2.952,-1.162 -5.776,-1.851 -5.776,-1.851 0,0 -2.261,-0.63 -2.323,-1.258 -0.063,-0.628 0.503,-5.838 0.503,-5.838 0,0 2.385,-0.628 3.766,-1.131 1.381,-0.502 2.009,-1.38 3.015,-3.327 1.001,-2.45 3.765,-9.294 5.524,-11.868 1.757,-2.572 5.712,-4.205 10.862,-5.398 9.481,-0.753 12.87,1.382 15.946,3.014 3.077,1.631 4.898,5.525 5.965,7.408 1.069,1.883 2.888,9.355 3.015,9.983 0.125,0.628 -0.283,1.287 -0.628,1.788 -0.346,0.503 -0.66,1.539 -0.532,2.262 0.124,0.72 0.501,1.507 2.07,2.04 0.993,0.339 2.443,0.487 3.37,0.55 0.93,-0.063 2.377,-0.211 3.372,-0.55 1.57,-0.533 1.945,-1.32 2.07,-2.04 0.126,-0.723 -0.187,-1.759 -0.533,-2.262 -0.344,-0.501 -0.753,-1.16 -0.628,-1.788 0.127,-0.628 1.949,-8.1 3.014,-9.983 1.067,-1.883 2.888,-5.777 5.967,-7.408 3.075,-1.632 6.465,-3.767 15.946,-3.014 5.15,1.193 9.104,2.826 10.862,5.398 1.758,2.574 4.519,9.418 5.523,11.868 1.007,1.947 1.634,2.825 3.015,3.327 1.381,0.503 3.768,1.131 3.768,1.131 0,0 0.565,5.21 0.501,5.838" /></g></g><g
     transform="matrix(1.25,0,0,-1.25,-1551.2726,644.3241)"
     id="legs"><g
       transform="matrix(0.38720507,0,0,0.38720507,1265.9298,355.65674)"
       id="g784"><path
         inkscape:connector-curvature="0"
         id="path786"
         style="fill:#666666;fill-opacity:1;fill-rule:nonzero;stroke:none"
         d="m 0,0 -29.478,0 0,4.921 2.539,4.508 L 0,5.033 0,0 z" /></g><g
       transform="matrix(0.38720507,0,0,0.38720507,1273.1964,355.65674)"
       id="g788"><path
         inkscape:connector-curvature="0"
         id="path790"
         style="fill:#666666;fill-opacity:1;fill-rule:nonzero;stroke:none"
         d="m 0,0 29.475,0 0,4.921 L 26.939,9.429 0,5.033 0,0 z" /></g><g
       transform="matrix(0.38720507,0,0,0.38720507,1265.9053,382.85561)"
       id="g840"><path
         inkscape:connector-curvature="0"
         id="path842"
         style="fill:#00a99d;fill-opacity:1;fill-rule:nonzero;stroke:none"
         d="m 0,0 c -0.003,2.708 2.19,4.904 4.897,4.904 l 2.291,0 c 2.709,0 5.113,-2.186 5.375,-4.881 l 1.689,-17.585 26.725,5.455 -1.908,19.38 0,12.365 -66.265,0 0.131,-32.917 27.083,-5.06 L 0,0 z" /></g><g
       transform="matrix(0.38720507,0,0,0.38720507,1273.1964,357.60562)"
       id="g844"><path
         inkscape:connector-curvature="0"
         id="path846"
         style="fill:#b07d3f;fill-opacity:1;fill-rule:nonzero;stroke:none"
         d="M 0,0 26.939,4.395 22.146,53.104 -4.578,47.648 0,0 z" /></g><g
       transform="matrix(0.38720507,0,0,0.38720507,1265.9298,357.60562)"
       id="g848"><path
         inkscape:connector-curvature="0"
         id="path850"
         style="fill:#b07d3f;fill-opacity:1;fill-rule:nonzero;stroke:none"
         d="m 0,0 -0.045,46.872 -27.084,5.06 0.19,-47.537 L 0,0 z" /></g></g><path
     inkscape:connector-curvature="0"
     d="m 169.0196,15.499187 0,-15.49918771777344 -153.938125,0 c -4.22775,0 -7.65425,3.42657501777344 -7.65425,7.65430011777344 0,4.2277246 3.4265,7.6542996 7.65425,7.6542996 l 14.885125,0"
     id="balken"
     inkscape:label="#path3806"><title
       id="title3826-6">balken</title></path><g
     id="fundament"
     transform="matrix(2.5514325,0,0,2.5514325,-98.880752,-57.399131)"><path
       inkscape:label="#path3822"
       id="#path3822-9"
       d="m 68.785,28.481 c 0.1,0.141 0.205,0.279 0.331,0.405 l 28.822,28.821 c 0.312,0.311 0.676,0.534 1.062,0.68 l 0,25.09 0,3.021 -9.987,22.275 c -0.678,1.512 -0.002,3.287 1.51,3.965 0.398,0.179 0.815,0.264 1.226,0.264 1.146,0 2.24,-0.66 2.739,-1.773 L 99,101.162 99,110 c 0,1.657 1.343,3 3,3 1.657,0 3,-1.343 3,-3 l 0,-9.972 5.559,11.296 c 0.521,1.061 1.586,1.677 2.693,1.677 0.445,0 0.896,-0.1 1.322,-0.31 1.488,-0.731 2.099,-2.529 1.367,-4.015 L 105,86.441 l 0,-2.965 0,-54.920302"
       inkscape:connector-curvature="0"><title
         id="title3828-7">statur</title></path><path
       inkscape:connector-curvature="0"
       style="fill:#ffffff;fill-opacity:1"
       id="path3-5"
       d="M 77.196,28.481 H 99 V 50.284 L 77.196,28.481 z" /></g><g
     id="chair"
     transform="matrix(1.25,0,0,-0.87976977,-1551.2726,514.84155)"><path
       style="fill:#090000;fill-opacity:1;stroke:none"
       d="m 1607.0625,492.0625 0,34.84375 -51.8125,0 0,1.28125 -0.1875,0 0,43.40625 15.0937,0 0,-34 36.9063,0 0,34 15.0937,0 0,-79.53125 -15.0937,0 z"
       transform="matrix(0.8,0,0,-0.8,0,780)"
       id="rect4791"
       inkscape:connector-curvature="0" /></g></svg>