<?xml version="1.0" encoding="UTF-8" standalone="no"?>
<!-- Generator: Adobe Illustrator 16.0.4, SVG Export Plug-In . SVG Version: 6.00 Build 0)  -->

<svg
   xmlns:dc="http://purl.org/dc/elements/1.1/"
   xmlns:cc="http://creativecommons.org/ns#"
   xmlns:rdf="http://www.w3.org/1999/02/22-rdf-syntax-ns#"
   xmlns:svg="http://www.w3.org/2000/svg"
   xmlns="http://www.w3.org/2000/svg"
   xmlns:xlink="http://www.w3.org/1999/xlink"
   xmlns:sodipodi="http://sodipodi.sourceforge.net/DTD/sodipodi-0.dtd"
   xmlns:inkscape="http://www.inkscape.org/namespaces/inkscape"
   version="1.1"
   id="Layer_1"
   x="0px"
   y="0px"
   width="201.13905"
   height="230.91785"
   viewBox="0 0 201.13905 230.91785"
   enable-background="new 0 0 126 126"
   xml:space="preserve"
   inkscape:version="0.48.4 r9939"
   sodipodi:docname="hangman (copy).svg"><metadata
     id="metadata9"><rdf:RDF><cc:Work
         rdf:about=""><dc:format>image/svg+xml</dc:format><dc:type
           rdf:resource="http://purl.org/dc/dcmitype/StillImage" /></cc:Work></rdf:RDF></metadata><defs
     id="defs7"><linearGradient
       inkscape:collect="always"
       id="linearGradient3827"><stop
         style="stop-color:#000000;stop-opacity:1;"
         offset="0"
         id="stop3829" /><stop
         style="stop-color:#000000;stop-opacity:0;"
         offset="1"
         id="stop3831" /></linearGradient><linearGradient
       inkscape:collect="always"
       xlink:href="#linearGradient3827"
       id="linearGradient3833"
       x1="-2.5349081"
       y1="135.45512"
       x2="70.282646"
       y2="135.45512"
       gradientUnits="userSpaceOnUse" /></defs><sodipodi:namedview
     pagecolor="#ffffff"
     bordercolor="#666666"
     borderopacity="1"
     objecttolerance="10"
     gridtolerance="10"
     guidetolerance="10"
     inkscape:pageopacity="0"
     inkscape:pageshadow="2"
     inkscape:window-width="1680"
     inkscape:window-height="995"
     id="namedview5"
     showgrid="false"
     inkscape:zoom="3.2147032"
     inkscape:cx="62.929171"
     inkscape:cy="109.55597"
     inkscape:window-x="1366"
     inkscape:window-y="0"
     inkscape:window-maximized="1"
     inkscape:current-layer="Layer_1"
     fit-margin-top="0"
     fit-margin-left="0"
     fit-margin-right="0"
     fit-margin-bottom="0" /><path
     d="m 41.03822,80.6763 0,-65.3677 -7.656875,0 0,54.485837 z"
     id="rope"
     inkscape:connector-curvature="0"
     sodipodi:nodetypes="ccccc"
     inkscape:label="#path3810"><title
       id="title3816-7">seil</title></path><path
     inkscape:connector-curvature="0"
     d="M 172.43435,15.499188 172.43435,0 18.49622,0 c -4.22775,0 -7.65425,3.426575 -7.65425,7.6543001 0,4.2277249 3.4265,7.6542999 7.65425,7.6542999 l 14.885125,0"
     id="balken"
     inkscape:label="#path3806"><title
       id="title3826-6">balken</title></path><g
     id="fundament"
     transform="matrix(2.5514325,0,0,2.5514325,-95.466007,-57.39913)"><path
       inkscape:label="#path3822"
       id="#path3822-9"
       d="m 68.785,28.481 c 0.1,0.141 0.205,0.279 0.331,0.405 l 28.822,28.821 c 0.312,0.311 0.676,0.534 1.062,0.68 l 0,25.09 0,3.021 -9.987,22.275 c -0.678,1.512 -0.002,3.287 1.51,3.965 0.398,0.179 0.815,0.264 1.226,0.264 1.146,0 2.24,-0.66 2.739,-1.773 L 99,101.162 99,110 c 0,1.657 1.343,3 3,3 1.657,0 3,-1.343 3,-3 l 0,-9.972 5.559,11.296 c 0.521,1.061 1.586,1.677 2.693,1.677 0.445,0 0.896,-0.1 1.322,-0.31 1.488,-0.731 2.099,-2.529 1.367,-4.015 L 105,86.441 l 0,-2.965 0,-54.920302"
       inkscape:connector-curvature="0"><title
         id="title3828-7">statur</title></path><path
       inkscape:connector-curvature="0"
       style="fill:#ffffff;fill-opacity:1"
       id="path3-5"
       d="M 77.196,28.481 H 99 V 50.284 L 77.196,28.481 z" /></g><g
     id="chair"
     transform="matrix(1.25,0,0,-0.87976977,-1547.8579,514.84155)"><path
       style="fill:#090000;fill-opacity:1;stroke:none"
       d="m 1607.0625,492.0625 0,34.84375 -51.8125,0 0,1.28125 -0.1875,0 0,43.40625 15.0937,0 0,-34 36.9063,0 0,34 15.0937,0 0,-79.53125 -15.0937,0 z"
       transform="matrix(0.8,0,0,-0.8,0,780)"
       id="rect4791"
       inkscape:connector-curvature="0" /></g><path
     inkscape:connector-curvature="0"
     d="m 32.740512,68.846904 c -3.195987,-3.699877 -8.099835,-6.078031 -13.608613,-6.078031 -9.6288568,0 -17.4375441,7.243428 -17.4375441,16.180451 0,8.299857 6.739148,15.131123 15.4132731,16.062014 C 6.6287177,109.57635 -1.3051577,125.9084 0.83141981,143.84877 c 1.07216559,9.00573 16.40127119,9.10283 15.31634919,0 -1.266138,-10.64484 1.577671,-20.34458 6.381844,-29.40242 l 0,29.40242 c 0,0.81482 0.0913,1.60833 0.244998,2.38288 0.673965,16.32968 -4.079182,32.24957 -4.472255,48.54373 -0.222112,9.17153 15.094112,9.1502 15.316224,0 0.15833,-6.5423 1.023641,-13.02063 1.957987,-19.4895 0.602429,7.08473 1.281397,14.16707 1.633699,21.26601 0.451853,9.12889 15.768202,9.16678 15.316349,0 -0.799028,-16.21362 -3.310919,-32.3609 -2.634453,-48.60531 0.459481,-1.29092 0.719863,-2.66476 0.719863,-4.09781 l 0,-34.09478 c 4.735388,9.58605 5.455251,20.52936 6.381843,32.12167 0.727492,9.08152 16.04897,9.14784 15.31635,0 -1.717992,-21.43656 -3.599316,-41.76218 -22.665681,-56.346149 -1.406459,-1.077748 -2.930478,-1.603589 -4.426357,-1.714924 -1.672094,-1.217503 -3.642712,-2.096277 -5.7998,-2.508428 0.605055,-0.627696 0.98287,-1.447263 0.98287,-2.356835"
     id="human"
     inkscape:label="#path3812"
     style="fill:#d0cdcd;fill-opacity:1;stroke:#ab1818;stroke-width:0.96376383;stroke-opacity:1"><title
       id="title3818"
       style="fill:url(#linearGradient3833);fill-opacity:1">human</title></path><path
     style="opacity:0.75536481;fill:#ffffff;fill-opacity:0;stroke:#000000;stroke-width:7.19999981;stroke-miterlimit:4;stroke-opacity:1"
     d="m 38.826056,77.29901 c 3.811814,4.03622 -1.276476,12.146022 -6.376551,16.962542 -5.100165,4.81661 -13.880063,7.004558 -17.691877,2.968334"
     id="strick"
     inkscape:connector-curvature="0"
     sodipodi:nodetypes="csc" /></svg>